<svg id="visual" viewBox="0 0 960 540" width="960" height="540" xmlns="http://www.w3.org/2000/svg" xmlns:xlink="http://www.w3.org/1999/xlink" version="1.1"><rect x="0" y="0" width="960" height="540" fill="#012a23"></rect><defs><linearGradient id="grad1_0" x1="43.8%" y1="0%" x2="100%" y2="100%"><stop offset="14.444444444444446%" stop-color="#09ff97" stop-opacity="1"></stop><stop offset="85.55555555555554%" stop-color="#09ff97" stop-opacity="1"></stop></linearGradient></defs><defs><linearGradient id="grad1_1" x1="43.8%" y1="0%" x2="100%" y2="100%"><stop offset="14.444444444444446%" stop-color="#09ff97" stop-opacity="1"></stop><stop offset="85.55555555555554%" stop-color="#00d889" stop-opacity="1"></stop></linearGradient></defs><defs><linearGradient id="grad1_2" x1="43.8%" y1="0%" x2="100%" y2="100%"><stop offset="14.444444444444446%" stop-color="#00b378" stop-opacity="1"></stop><stop offset="85.55555555555554%" stop-color="#00d889" stop-opacity="1"></stop></linearGradient></defs><defs><linearGradient id="grad1_3" x1="43.8%" y1="0%" x2="100%" y2="100%"><stop offset="14.444444444444446%" stop-color="#00b378" stop-opacity="1"></stop><stop offset="85.55555555555554%" stop-color="#008e65" stop-opacity="1"></stop></linearGradient></defs><defs><linearGradient id="grad1_4" x1="43.8%" y1="0%" x2="100%" y2="100%"><stop offset="14.444444444444446%" stop-color="#006b50" stop-opacity="1"></stop><stop offset="85.55555555555554%" stop-color="#008e65" stop-opacity="1"></stop></linearGradient></defs><defs><linearGradient id="grad1_5" x1="43.8%" y1="0%" x2="100%" y2="100%"><stop offset="14.444444444444446%" stop-color="#006b50" stop-opacity="1"></stop><stop offset="85.55555555555554%" stop-color="#00493a" stop-opacity="1"></stop></linearGradient></defs><defs><linearGradient id="grad1_6" x1="43.8%" y1="0%" x2="100%" y2="100%"><stop offset="14.444444444444446%" stop-color="#012a23" stop-opacity="1"></stop><stop offset="85.55555555555554%" stop-color="#00493a" stop-opacity="1"></stop></linearGradient></defs><defs><linearGradient id="grad2_0" x1="0%" y1="0%" x2="56.3%" y2="100%"><stop offset="14.444444444444446%" stop-color="#09ff97" stop-opacity="1"></stop><stop offset="85.55555555555554%" stop-color="#09ff97" stop-opacity="1"></stop></linearGradient></defs><defs><linearGradient id="grad2_1" x1="0%" y1="0%" x2="56.3%" y2="100%"><stop offset="14.444444444444446%" stop-color="#00d889" stop-opacity="1"></stop><stop offset="85.55555555555554%" stop-color="#09ff97" stop-opacity="1"></stop></linearGradient></defs><defs><linearGradient id="grad2_2" x1="0%" y1="0%" x2="56.3%" y2="100%"><stop offset="14.444444444444446%" stop-color="#00d889" stop-opacity="1"></stop><stop offset="85.55555555555554%" stop-color="#00b378" stop-opacity="1"></stop></linearGradient></defs><defs><linearGradient id="grad2_3" x1="0%" y1="0%" x2="56.3%" y2="100%"><stop offset="14.444444444444446%" stop-color="#008e65" stop-opacity="1"></stop><stop offset="85.55555555555554%" stop-color="#00b378" stop-opacity="1"></stop></linearGradient></defs><defs><linearGradient id="grad2_4" x1="0%" y1="0%" x2="56.3%" y2="100%"><stop offset="14.444444444444446%" stop-color="#008e65" stop-opacity="1"></stop><stop offset="85.55555555555554%" stop-color="#006b50" stop-opacity="1"></stop></linearGradient></defs><defs><linearGradient id="grad2_5" x1="0%" y1="0%" x2="56.3%" y2="100%"><stop offset="14.444444444444446%" stop-color="#00493a" stop-opacity="1"></stop><stop offset="85.55555555555554%" stop-color="#006b50" stop-opacity="1"></stop></linearGradient></defs><defs><linearGradient id="grad2_6" x1="0%" y1="0%" x2="56.3%" y2="100%"><stop offset="14.444444444444446%" stop-color="#00493a" stop-opacity="1"></stop><stop offset="85.55555555555554%" stop-color="#012a23" stop-opacity="1"></stop></linearGradient></defs><g transform="translate(960, 0)"><path d="M0 405C-35.3 374.8 -70.7 344.6 -107.2 330C-143.8 315.5 -181.5 316.6 -222.2 305.8C-262.9 295.1 -306.5 272.4 -327.7 238.1C-348.8 203.7 -347.5 157.5 -356.6 115.9C-365.8 74.2 -385.4 37.1 -405 0L0 0Z" fill="#00392f"></path><path d="M0 347.1C-30.3 321.2 -60.6 295.3 -91.9 282.9C-123.2 270.4 -155.6 271.3 -190.4 262.1C-225.3 252.9 -262.7 233.5 -280.8 204C-299 174.6 -297.9 135 -305.7 99.3C-313.5 63.6 -330.3 31.8 -347.1 0L0 0Z" fill="#005a45"></path><path d="M0 289.3C-25.2 267.7 -50.5 246.1 -76.6 235.7C-102.7 225.3 -129.6 226.1 -158.7 218.4C-187.8 210.8 -218.9 194.6 -234 170C-249.2 145.5 -248.2 112.5 -254.7 82.8C-261.3 53 -275.3 26.5 -289.3 0L0 0Z" fill="#007c5b"></path><path d="M0 231.4C-20.2 214.2 -40.4 196.9 -61.3 188.6C-82.2 180.3 -103.7 180.9 -127 174.7C-150.2 168.6 -175.1 155.7 -187.2 136C-199.3 116.4 -198.6 90 -203.8 66.2C-209 42.4 -220.2 21.2 -231.4 0L0 0Z" fill="#00a06f"></path><path d="M0 173.6C-15.1 160.6 -30.3 147.7 -46 141.4C-61.6 135.2 -77.8 135.7 -95.2 131.1C-112.7 126.5 -131.4 116.8 -140.4 102C-149.5 87.3 -148.9 67.5 -152.8 49.7C-156.8 31.8 -165.2 15.9 -173.6 0L0 0Z" fill="#00c581"></path><path d="M0 115.7C-10.1 107.1 -20.2 98.4 -30.6 94.3C-41.1 90.1 -51.9 90.4 -63.5 87.4C-75.1 84.3 -87.6 77.8 -93.6 68C-99.7 58.2 -99.3 45 -101.9 33.1C-104.5 21.2 -110.1 10.6 -115.7 0L0 0Z" fill="#00ec90"></path><path d="M0 57.9C-5 53.5 -10.1 49.2 -15.3 47.1C-20.5 45.1 -25.9 45.2 -31.7 43.7C-37.6 42.2 -43.8 38.9 -46.8 34C-49.8 29.1 -49.6 22.5 -50.9 16.6C-52.3 10.6 -55.1 5.3 -57.9 0L0 0Z" fill="#09ff97"></path></g><g transform="translate(0, 540)"><path d="M0 -405C42.3 -402 84.6 -399.1 125.2 -385.2C165.7 -371.3 204.5 -346.5 226.9 -312.3C249.3 -278.1 255.4 -234.5 279.1 -202.8C302.8 -171.1 344.1 -151.4 368.1 -119.6C392 -87.8 398.5 -43.9 405 0L0 0Z" fill="#00392f"></path><path d="M0 -347.1C36.3 -344.6 72.5 -342.1 107.3 -330.2C142 -318.3 175.2 -297 194.5 -267.7C213.7 -238.3 218.9 -201 239.2 -173.8C259.6 -146.7 295 -129.8 315.5 -102.5C336 -75.2 341.6 -37.6 347.1 0L0 0Z" fill="#005a45"></path><path d="M0 -289.3C30.2 -287.2 60.4 -285 89.4 -275.1C118.3 -265.2 146 -247.5 162.1 -223.1C178.1 -198.6 182.4 -167.5 199.4 -144.8C216.3 -122.2 245.8 -108.1 262.9 -85.4C280 -62.7 284.6 -31.4 289.3 0L0 0Z" fill="#007c5b"></path><path d="M0 -231.4C24.2 -229.7 48.4 -228 71.5 -220.1C94.7 -212.2 116.8 -198 129.6 -178.4C142.5 -158.9 145.9 -134 159.5 -115.9C173 -97.8 196.7 -86.5 210.3 -68.3C224 -50.2 227.7 -25.1 231.4 0L0 0Z" fill="#00a06f"></path><path d="M0 -173.6C18.1 -172.3 36.3 -171 53.6 -165.1C71 -159.1 87.6 -148.5 97.2 -133.8C106.8 -119.2 109.5 -100.5 119.6 -86.9C129.8 -73.3 147.5 -64.9 157.7 -51.3C168 -37.6 170.8 -18.8 173.6 0L0 0Z" fill="#00c581"></path><path d="M0 -115.7C12.1 -114.9 24.2 -114 35.8 -110.1C47.3 -106.1 58.4 -99 64.8 -89.2C71.2 -79.4 73 -67 79.7 -57.9C86.5 -48.9 98.3 -43.3 105.2 -34.2C112 -25.1 113.9 -12.5 115.7 0L0 0Z" fill="#00ec90"></path><path d="M0 -57.9C6 -57.4 12.1 -57 17.9 -55C23.7 -53 29.2 -49.5 32.4 -44.6C35.6 -39.7 36.5 -33.5 39.9 -29C43.3 -24.4 49.2 -21.6 52.6 -17.1C56 -12.5 56.9 -6.3 57.9 0L0 0Z" fill="#09ff97"></path></g></svg>